<svg xmlns="http://www.w3.org/2000/svg" width="16.295" height="15.041" viewBox="0 0 16.295 15.041">
    <path fill="#ffc107"  d="M16.252 6.175a.858.858 0 0 0-.746-.574L10.8 5.19 8.944 1a.879.879 0 0 0-1.593 0l-1.86 4.19-4.703.41a.86.86 0 0 0-.745.574.814.814 0 0 0 .257.887l3.555 3L2.8 14.512a.819.819 0 0 0 .337.861.888.888 0 0 0 .951.04l4.057-2.335 4.055 2.335a.89.89 0 0 0 .952-.04.819.819 0 0 0 .337-.861l-1.048-4.448 3.555-3a.815.815 0 0 0 .254-.887zm0 0" transform="translate(0 -.491)"/>
    <svg>
        <path fill="#ffc107" d="M16.252 6.175a.858.858 0 0 0-.746-.574L10.8 5.19 8.944 1a.879.879 0 0 0-1.593 0l-1.86 4.19-4.703.41a.86.86 0 0 0-.745.574.814.814 0 0 0 .257.887l3.555 3L2.8 14.512a.819.819 0 0 0 .337.861.888.888 0 0 0 .951.04l4.057-2.335 4.055 2.335a.89.89 0 0 0 .952-.04.819.819 0 0 0 .337-.861l-1.048-4.448 3.555-3a.815.815 0 0 0 .254-.887zm0 0" transform="translate(0 -.491)"/>
    </svg>
</svg>
